<svg xmlns="http://www.w3.org/2000/svg" xmlns:xlink="http://www.w3.org/1999/xlink" width="2000" zoomAndPan="magnify" viewBox="0 0 1500 1499.999933" height="2000" preserveAspectRatio="xMidYMid meet" version="1.0"><defs><g/></defs><rect x="-150" width="1800" fill="#ffffff" y="-149.999993" height="1799.99992" fill-opacity="1"/><rect x="-150" width="1800" fill="#998fc7" y="-149.999993" height="1799.99992" fill-opacity="1"/><g fill="#f9f5ff" fill-opacity="1"><g transform="translate(287.964676, 1114.124884)"><g><path d="M 63.03125 0 L 63.03125 -728.109375 L 290.265625 -728.109375 L 408.515625 -392.890625 C 413.410156 -377.242188 419.113281 -357.285156 425.625 -333.015625 C 432.144531 -308.753906 438.742188 -282.773438 445.421875 -255.078125 C 452.097656 -227.390625 458.285156 -200.59375 463.984375 -174.6875 C 469.679688 -148.789062 474.488281 -126.394531 478.40625 -107.5 L 447.125 -107.5 C 451.03125 -126.070312 455.832031 -148.222656 461.53125 -173.953125 C 467.238281 -199.691406 473.429688 -226.488281 480.109375 -254.34375 C 486.785156 -282.195312 493.300781 -308.335938 499.65625 -332.765625 C 506.007812 -357.203125 511.789062 -377.242188 517 -392.890625 L 633.3125 -728.109375 L 861.03125 -728.109375 L 861.03125 0 L 711.5 0 L 711.5 -344.015625 C 711.5 -359.984375 711.738281 -379.691406 712.21875 -403.140625 C 712.707031 -426.597656 713.359375 -451.847656 714.171875 -478.890625 C 714.992188 -505.929688 715.726562 -533.210938 716.375 -560.734375 C 717.03125 -588.265625 717.519531 -614.25 717.84375 -638.6875 L 729.078125 -638.6875 C 722.566406 -611.96875 715.484375 -584.4375 707.828125 -556.09375 C 700.171875 -527.75 692.515625 -500.140625 684.859375 -473.265625 C 677.203125 -446.390625 670.035156 -421.796875 663.359375 -399.484375 C 656.679688 -377.171875 650.898438 -358.679688 646.015625 -344.015625 L 524.828125 0 L 399.71875 0 L 277.078125 -344.015625 C 271.859375 -358.679688 265.910156 -377.085938 259.234375 -399.234375 C 252.554688 -421.390625 245.304688 -445.820312 237.484375 -472.53125 C 229.671875 -499.25 221.851562 -526.78125 214.03125 -555.125 C 206.21875 -583.46875 198.726562 -611.320312 191.5625 -638.6875 L 205.234375 -638.6875 C 205.566406 -615.226562 206.054688 -589.816406 206.703125 -562.453125 C 207.359375 -535.085938 208.007812 -507.722656 208.65625 -480.359375 C 209.3125 -452.992188 209.960938 -427.5 210.609375 -403.875 C 211.265625 -380.257812 211.59375 -360.304688 211.59375 -344.015625 L 211.59375 0 Z M 63.03125 0 "/></g></g></g></svg>